<svg width="100" height="32" viewBox="0 0 100 32" fill="none" xmlns="http://www.w3.org/2000/svg">
  <path fill-rule="evenodd" clip-rule="evenodd" d="M33.9562 13.5547C34.24 13.3281 34.5725 13.1797 34.934 13.1172C35.2955 13.0547 35.6765 13.0781 36.0256 13.1875C36.3748 13.2969 36.6799 13.4883 36.9115 13.7422C37.1431 13.9961 37.293 14.3047 37.3458 14.6328L35.2487 23.4297C35.1735 23.8203 35.1735 24.2266 35.2487 24.6172C35.3239 25.0078 35.4728 25.3749 35.6862 25.6953C35.8996 26.0156 36.1718 26.282 36.4866 26.4766C36.8014 26.6711 37.151 26.7891 37.5115 26.8281H41.0881L42.7018 17.8125C42.8209 17.1953 42.6447 16.5586 42.2224 16.0781C41.8002 15.5976 41.1744 15.3242 40.5256 15.3359H37.119L36.0022 20.6484C35.9739 20.7813 35.9881 20.9193 36.0431 21.0431C36.0982 21.1669 36.1916 21.2707 36.3088 21.3399C36.426 21.409 36.5614 21.4399 36.6979 21.428C36.8344 21.4162 36.9638 21.3621 37.0682 21.2734L37.2912 21.0781C37.4604 21.1953 37.5791 21.3633 37.6249 21.553C37.6706 21.7428 37.6405 21.9411 37.5401 22.1094L37.0682 23.0391C36.9678 23.2148 36.8049 23.3481 36.6119 23.4141C36.4189 23.4801 36.209 23.4741 36.021 23.3971C35.8329 23.3201 35.6791 23.1776 35.5901 22.9961C35.501 22.8147 35.4824 22.6062 35.5377 22.4141L37.3693 13.7891L33.9562 13.5547Z" fill="#253B80"/>
  <path fill-rule="evenodd" clip-rule="evenodd" d="M32.2018 22.3984C32.2018 22.5391 32.1627 22.678 32.0878 22.8008C32.013 22.9238 31.9051 23.0269 31.7753 23.0995C31.6454 23.1721 31.4985 23.2116 31.3487 23.2135C31.1987 23.2152 31.051 23.1794 30.9193 23.1093C30.7877 23.0394 30.6773 22.9383 30.5995 22.8168C30.5216 22.6953 30.4791 22.5571 30.4756 22.4163C30.4723 22.2756 30.5081 22.1356 30.5801 22.0106C30.6521 21.8856 30.7579 21.7799 30.887 21.7044C31.016 21.6291 31.1621 21.5869 31.3117 21.5824C31.4613 21.5779 31.6095 21.6112 31.7435 21.6786C31.8774 21.7461 31.989 21.8451 32.0679 21.9657C32.1466 22.0862 32.1896 22.2242 32.1935 22.3647C32.1974 22.5053 32.1622 22.6452 32.0897 22.7695C32.0172 22.8936 31.9104 22.9974 31.7807 23.0698C31.6511 23.1422 31.5041 23.1807 31.3545 23.1807C31.2049 23.1807 31.0578 23.1422 30.9282 23.0698C30.7986 22.9974 30.6917 22.8936 30.6192 22.7695C30.5467 22.6452 30.5116 22.5053 30.5155 22.3647C30.5193 22.2242 30.5624 22.0862 30.6411 21.9657C30.72 21.8451 30.8315 21.7461 30.9655 21.6786C31.0995 21.6112 31.2477 21.5779 31.3972 21.5824C31.5468 21.5869 31.693 21.6291 31.822 21.7044C31.951 21.7799 32.0568 21.8856 32.1289 22.0106C32.201 22.1356 32.2367 22.2756 32.2333 22.4163C32.2299 22.5571 32.1874 22.6953 32.1095 22.8168C32.0955 22.6775 32.0631 22.5407 32.0135 22.4101L32.2018 22.3984Z" fill="#253B80"/>
  <path fill-rule="evenodd" clip-rule="evenodd" d="M28.2721 23.75H20.5178C20.1963 23.7516 19.8767 23.6845 19.5778 23.5523C19.2789 23.4199 19.007 23.2248 18.7779 22.9771C18.5487 22.7294 18.3666 22.4338 18.2418 22.1105C18.1172 21.7873 18.0525 21.443 18.0518 21.0937L18.0518 18.9453C18.0518 18.5957 18.1163 18.2509 18.2408 17.9275C18.3655 17.6038 18.5476 17.3073 18.7769 17.0594C19.0062 16.8116 19.2782 16.6172 19.5773 16.4851C19.8764 16.3532 20.1962 16.2852 20.5178 16.2891H27.4424C27.7641 16.2861 28.0836 16.3537 28.3826 16.4856C28.6816 16.6174 28.9538 16.8117 29.1834 17.0592C29.4131 17.3068 29.5952 17.603 29.7203 17.9266C29.8452 18.2499 29.9098 18.5945 29.9096 18.9438V21.0938C29.9098 21.443 29.8452 21.7876 29.7203 22.1108C29.5952 22.4344 29.4131 22.7306 29.1834 22.9782C28.9538 23.2257 28.6816 23.4201 28.3826 23.5518C28.0836 23.6837 27.7641 23.7513 27.4424 23.7484L28.2721 23.75Z" fill="#179BD7"/>
  <path fill-rule="evenodd" clip-rule="evenodd" d="M25.0881 19.8828C25.0881 19.7437 25.1272 19.6065 25.2018 19.4846C25.2764 19.3628 25.3837 19.2602 25.5127 19.1883C25.6419 19.1163 25.7879 19.0772 25.9369 19.0752C26.0859 19.0736 26.2327 19.1093 26.3635 19.1787C26.4942 19.2482 26.6042 19.3488 26.6815 19.4694C26.7589 19.5901 26.8009 19.7268 26.8037 19.8672C26.8066 20.0073 26.771 20.1458 26.698 20.2698C26.6251 20.3938 26.5182 20.498 26.3903 20.5724C26.2625 20.6463 26.1185 20.6881 25.9696 20.6926C25.8208 20.6967 25.6737 20.6636 25.5409 20.5968C25.408 20.5299 25.2971 20.4317 25.2187 20.312C25.1402 20.1923 25.0974 20.0551 25.0927 19.9148C25.0878 19.775 25.1212 19.6356 25.1915 19.5113C25.2618 19.3874 25.3674 19.2834 25.4964 19.2108C25.6252 19.1383 25.7717 19.1006 25.9203 19.1006C26.0689 19.1006 26.2153 19.1383 26.3442 19.2108C26.4731 19.2834 26.5786 19.3874 26.6491 19.5113C26.7193 19.6356 26.7527 19.775 26.7479 19.9148C26.7431 20.0551 26.7004 20.1923 26.6219 20.312C26.5434 20.4317 26.4325 20.5299 26.2997 20.5968C26.1668 20.6636 26.0199 20.6967 25.8709 20.6926C25.7221 20.6881 25.578 20.6463 25.4502 20.5724C25.3224 20.498 25.2154 20.3938 25.1426 20.2698C25.0696 20.1458 25.0339 20.0073 25.0369 19.8672V19.8828Z" fill="#179BD7"/>
  <path fill-rule="evenodd" clip-rule="evenodd" d="M42.4893 9.93749C42.4893 9.52679 42.5573 9.12041 42.6899 8.73483C42.8225 8.34925 43.0177 7.99077 43.2651 7.67968C43.5125 7.36859 43.8086 7.10892 44.1331 6.91468C44.4577 6.72045 44.8056 6.59521 45.1643 6.54687H52.9893C53.3481 6.59521 53.6959 6.72045 54.0205 6.91468C54.345 7.10892 54.641 7.36859 54.8885 7.67968C55.1359 7.99077 55.3311 8.34925 55.4637 8.73483C55.5963 9.12041 55.6643 9.52679 55.6643 9.93749V12.2109C55.6635 13.0464 55.354 13.8474 54.8026 14.4609C54.2511 15.0743 53.5018 15.4511 52.7127 15.5156H45.5518C44.7626 15.4511 44.0132 15.0743 43.4619 14.4609C42.9104 13.8474 42.6009 13.0464 42.6002 12.2109V9.93749H42.4893Z" fill="#253B80"/>
  <path fill-rule="evenodd" clip-rule="evenodd" d="M59.5413 21.0937V18.9453C59.5413 18.2517 59.2776 17.5864 58.8078 17.0883C58.3379 16.5901 57.7087 16.2891 57.0568 16.2891H50.1315C49.4795 16.2891 48.8503 16.5901 48.3805 17.0883C47.9107 17.5864 47.6469 18.2517 47.6469 18.9453V21.0937C47.6469 21.7874 47.9107 22.4527 48.3805 22.9508C48.8503 23.449 49.4795 23.75 50.1315 23.75H56.8858C57.5377 23.75 58.1669 23.449 58.6367 22.9508C59.1065 22.4527 59.3704 21.7874 59.3704 21.0937H59.5413Z" fill="#179BD7"/>
  <path fill-rule="evenodd" clip-rule="evenodd" d="M53.8933 19.8828C53.8933 19.7437 53.9325 19.6065 54.0071 19.4846C54.0817 19.3628 54.189 19.2602 54.318 19.1883C54.4471 19.1163 54.5931 19.0772 54.7422 19.0752C54.8911 19.0736 55.038 19.1093 55.1688 19.1787C55.2994 19.2482 55.4095 19.3488 55.4868 19.4694C55.5642 19.5901 55.6061 19.7268 55.6089 19.8672C55.6118 20.0073 55.5762 20.1458 55.5033 20.2698C55.4303 20.3938 55.3235 20.498 55.1956 20.5724C55.0677 20.6463 54.9238 20.6881 54.7749 20.6926C54.6261 20.6967 54.479 20.6636 54.3462 20.5968C54.2133 20.5299 54.1024 20.4317 54.0239 20.312C53.9455 20.1923 53.9027 20.0551 53.8979 19.9148C53.8931 19.775 53.9264 19.6356 53.9968 19.5113C54.0671 19.3874 54.1727 19.2834 54.3016 19.2108C54.4304 19.1383 54.5769 19.1006 54.7255 19.1006C54.8742 19.1006 55.0205 19.1383 55.1495 19.2108C55.2784 19.2834 55.3839 19.3874 55.4543 19.5113C55.5246 19.6356 55.5579 19.775 55.5531 19.9148C55.5483 20.0551 55.5057 20.1923 55.4271 20.312C55.3487 20.4317 55.2377 20.5299 55.1049 20.5968C54.9721 20.6636 54.8251 20.6967 54.6762 20.6926C54.5273 20.6881 54.3833 20.6463 54.2555 20.5724C54.1277 20.498 54.0207 20.3938 53.9478 20.2698C53.8748 20.1458 53.8392 20.0073 53.8422 19.8672L53.8933 19.8828Z" fill="#179BD7"/>
  <path fill-rule="evenodd" clip-rule="evenodd" d="M65.7221 9.93749C65.7221 8.48437 66.2518 7.09053 67.1913 6.0625C68.1307 5.03446 69.4047 4.50001 70.7362 4.5H78.2377C79.5693 4.5 80.8432 5.03446 81.7826 6.0625C82.7222 7.09053 83.2518 8.48437 83.2518 9.93749V12.2109C83.2509 12.8398 83.1166 13.4597 82.8592 14.0234C82.602 14.5871 82.2286 15.0799 81.7718 15.4609C80.8322 16.4956 79.5548 17.0341 78.2197 17.0391H71.5034C70.1645 17.0391 68.8819 16.5065 67.9414 15.4748C67.0008 14.4429 66.4682 13.0415 66.4682 11.5859V9.93749H65.7221Z" fill="#253B80"/>
  <path fill-rule="evenodd" clip-rule="evenodd" d="M61.5 6.89059L63.6471 15.5156L67.2346 15.2812L69.3348 6.89059L65.7346 6.89059L61.5 6.89059Z" fill="#253B80"/>
  <path fill-rule="evenodd" clip-rule="evenodd" d="M76.3877 21.0938V18.9453C76.3868 18.594 76.3215 18.2466 76.1957 17.9204C76.0699 17.5942 75.8864 17.2948 75.6555 17.0448C75.4245 16.7948 75.1508 16.5987 74.85 16.4664C74.5492 16.3341 74.2295 16.2681 73.9071 16.2712H67.0169C66.6947 16.2683 66.3754 16.3344 66.0747 16.4667C65.774 16.5989 65.5008 16.7948 65.2699 17.0446C65.0391 17.2943 64.8557 17.5933 64.7301 17.9192C64.6045 18.245 64.5391 18.5919 64.5381 18.9428V21.0913C64.5381 21.44 64.6026 21.7847 64.7272 22.1084C64.8518 22.4319 65.0339 22.7284 65.2632 22.9762C65.4925 23.224 65.7645 23.4184 66.0636 23.5505C66.3627 23.6824 66.6825 23.7504 67.0041 23.7466H73.9071C74.2293 23.7485 74.5485 23.6817 74.8492 23.5497C75.1498 23.4178 75.4233 23.2231 75.6552 22.9748C75.887 22.7266 76.0719 22.4294 76.1997 22.1055C76.3275 21.7815 76.3952 21.4369 76.3992 21.0883L76.3877 21.0938Z" fill="#179BD7"/>
  <path fill-rule="evenodd" clip-rule="evenodd" d="M70.7612 19.8828C70.7612 19.7437 70.8003 19.6065 70.8749 19.4846C70.9496 19.3628 71.0569 19.2602 71.1859 19.1883C71.315 19.1163 71.461 19.0772 71.6101 19.0752C71.759 19.0736 71.9059 19.1093 72.0367 19.1787C72.1673 19.2482 72.2774 19.3488 72.3547 19.4694C72.4321 19.5901 72.474 19.7268 72.4768 19.8672C72.4797 20.0073 72.4441 20.1458 72.3712 20.2698C72.2982 20.3938 72.1914 20.498 72.0635 20.5724C71.9356 20.6463 71.7917 20.6881 71.6428 20.6926C71.494 20.6967 71.3469 20.6636 71.2141 20.5968C71.0812 20.5299 70.9703 20.4317 70.8918 20.312C70.8134 20.1923 70.7706 20.0551 70.7658 19.9148C70.761 19.775 70.7943 19.6356 70.8647 19.5113C70.935 19.3874 71.0406 19.2834 71.1695 19.2108C71.2983 19.1383 71.4448 19.1006 71.5934 19.1006C71.7421 19.1006 71.8884 19.1383 72.0174 19.2108C72.1463 19.2834 72.2518 19.3874 72.3222 19.5113C72.3925 19.6356 72.4258 19.775 72.421 19.9148C72.4162 20.0551 72.3736 20.1923 72.295 20.312C72.2166 20.4317 72.1056 20.5299 71.9728 20.5968C71.84 20.6636 71.693 20.6967 71.5441 20.6926C71.3952 20.6881 71.2512 20.6463 71.1234 20.5724C70.9956 20.498 70.8886 20.3938 70.8157 20.2698C70.7427 20.1458 70.7071 20.0073 70.7101 19.8672L70.7612 19.8828Z" fill="#179BD7"/>
  <path fill-rule="evenodd" clip-rule="evenodd" d="M82.9453 19.8828C82.9453 19.7437 82.9844 19.6065 83.059 19.4846C83.1337 19.3628 83.2409 19.2602 83.3699 19.1883C83.499 19.1163 83.645 19.0772 83.7941 19.0752C83.943 19.0736 84.0899 19.1093 84.2207 19.1787C84.3513 19.2482 84.4614 19.3488 84.5387 19.4694C84.6161 19.5901 84.658 19.7268 84.6608 19.8672C84.6637 20.0073 84.6281 20.1458 84.5552 20.2698C84.4822 20.3938 84.3754 20.498 84.2475 20.5724C84.1196 20.6463 83.9757 20.6881 83.8268 20.6926C83.678 20.6967 83.5309 20.6636 83.3981 20.5968C83.2652 20.5299 83.1543 20.4317 83.0758 20.312C82.9974 20.1923 82.9546 20.0551 82.9498 19.9148C82.945 19.775 82.9783 19.6356 83.0487 19.5113C83.119 19.3874 83.2246 19.2834 83.3535 19.2108C83.4823 19.1383 83.6288 19.1006 83.7774 19.1006C83.9261 19.1006 84.0724 19.1383 84.2014 19.2108C84.3303 19.2834 84.4358 19.3874 84.5062 19.5113C84.5765 19.6356 84.6098 19.775 84.605 19.9148C84.6002 20.0551 84.5576 20.1923 84.479 20.312C84.4006 20.4317 84.2896 20.5299 84.1568 20.5968C84.024 20.6636 83.877 20.6967 83.7281 20.6926C83.5792 20.6881 83.4352 20.6463 83.3074 20.5724C83.1796 20.498 83.0726 20.3938 82.9997 20.2698C82.9267 20.1458 82.8911 20.0073 82.8941 19.8672L82.9453 19.8828Z" fill="#253B80"/>
</svg> 