<svg width="100" height="32" viewBox="0 0 100 32" fill="none" xmlns="http://www.w3.org/2000/svg">
  <path d="M44.9328 10.4375H37.5078L37.4297 10.7109C36.3906 15.1719 35.0703 20.5234 35.0703 20.5234H39.5078C39.5078 20.5234 40.0234 18.3906 40.1797 17.7109H45.3672C45.3984 18.5 45.5234 20.5234 45.5234 20.5234H49.5547C49.5547 20.5234 47.3672 12.9766 44.9328 10.4375ZM41.0391 14.6562C41.3828 13.5547 42.3047 11 42.3047 11H42.3672C42.3672 11 43.0391 13.6016 43.3047 14.6562H41.0391Z" fill="#1434CB"/>
  <path d="M35.0312 10.4375L30.7422 20.5234H34.6953L38.9141 10.4375H35.0312Z" fill="#1434CB"/>
  <path d="M64.9688 10.4375C61.9219 10.4375 59.8125 12.1953 59.7969 14.7109C59.7812 16.5781 61.25 17.6406 62.3828 18.2656C63.5469 18.9062 63.9688 19.3125 63.9688 19.8516C63.9688 20.6719 63.0312 21.0391 62.1562 21.0391C60.7344 21.0391 59.9844 20.8125 58.7969 20.2578L58.3281 20.0234L57.8281 23.2422C58.875 23.7578 60.7031 24.2031 62.5938 24.2188C65.8438 24.2188 67.9062 22.4766 67.9219 19.7656C67.9375 18.2734 67.0938 17.1406 65.3281 16.1797C64.2656 15.5547 63.625 15.1406 63.625 14.5703C63.625 14.0547 64.2188 13.5234 65.5156 13.5234C66.5781 13.5078 67.3594 13.7734 67.9688 14.0391L68.3125 14.2031L68.8125 11.125C67.9844 10.7891 66.7188 10.4375 64.9688 10.4375Z" fill="#1434CB"/>
  <path d="M78.9688 10.4375H75.875C74.9219 10.4375 74.2344 10.6953 73.8281 11.6953L68.0312 20.5234H72.2891C72.2891 20.5234 72.9219 18.9375 73.0547 18.625C73.5703 18.625 77.5391 18.625 78.2031 18.625C78.3047 19.0312 78.6562 20.5234 78.6562 20.5234H82.4688L78.9688 10.4375ZM74.25 15.9375C74.5703 15.1406 75.75 12.1484 75.75 12.1484C75.7344 12.1641 76.0625 11.3125 76.2344 10.8203L76.5 12.0391C76.5 12.0391 77.2266 15.2578 77.3828 15.9375H74.25Z" fill="#1434CB"/>
  <path d="M29.2969 10.4375L25.4453 17.0078L25.0859 15.2734C24.4453 13.1719 22.4453 10.9141 20.2344 9.85938L23.7812 20.5156H28.0625L34.3203 10.4375H29.2969Z" fill="#1434CB"/>
  <path d="M22.125 10.4375H15.4062L15.3281 10.7109C20.6016 11.9688 24.1953 14.2344 25.0859 15.2734L23.7109 11.7188C23.4453 10.7109 22.8594 10.4688 22.125 10.4375Z" fill="#F9A51A"/>
</svg> 